<?xml version="1.0" encoding="UTF-8"?>
<svg xmlns="http://www.w3.org/2000/svg" xmlns:xlink="http://www.w3.org/1999/xlink" width="329pt" height="169pt" viewBox="0 0 329 169" version="1.1">
<g id="surface1">
<path style=" stroke:none;fill-rule:nonzero;fill:rgb(13.699341%,12.199402%,12.5%);fill-opacity:1;" d="M 149.023438 102.332031 L 149.023438 82.546875 C 149.023438 79.808594 146.8125 77.585938 144.066406 77.585938 C 141.339844 77.585938 139.125 79.808594 139.125 82.546875 L 139.125 102.332031 C 139.125 105.066406 141.339844 107.28125 144.066406 107.28125 C 146.8125 107.28125 149.023438 105.066406 149.023438 102.332031 M 122.332031 57.660156 C 119.597656 57.660156 117.378906 59.878906 117.378906 62.628906 L 117.378906 85.875 C 117.378906 85.875 117.574219 90.644531 114.265625 93.492188 C 109.71875 97.554688 102.480469 97.363281 102.480469 97.363281 C 102.480469 97.363281 95.265625 97.554688 90.710938 93.492188 C 87.394531 90.644531 87.605469 85.875 87.605469 85.875 L 87.605469 62.628906 C 87.605469 59.878906 85.378906 57.660156 82.640625 57.660156 C 79.890625 57.660156 77.671875 59.878906 77.671875 62.628906 L 77.671875 89.160156 C 77.671875 94.1875 81.257813 100.796875 87.214844 103.703125 C 92.855469 106.453125 97.648438 107.28125 102.480469 107.28125 C 107.335938 107.28125 112.121094 106.453125 117.777344 103.703125 C 123.714844 100.796875 127.289063 94.1875 127.289063 89.160156 L 127.289063 62.628906 C 127.289063 59.878906 125.089844 57.660156 122.332031 57.660156 M 190.640625 93.691406 C 190.640625 85.101563 183.507813 81.855469 183.507813 81.855469 C 186.808594 79.539063 188.734375 74.773438 188.570313 71.550781 C 187.9375 58.507813 175.570313 57.761719 175.570313 57.761719 L 144.035156 57.761719 C 141.320313 57.761719 139.125 59.984375 139.125 62.699219 C 139.125 65.414063 141.320313 67.625 144.035156 67.625 L 173.417969 67.625 C 176.195313 67.625 178.433594 69.851563 178.433594 72.625 C 178.433594 75.394531 176.195313 77.636719 173.417969 77.636719 L 162.371094 77.636719 C 159.632813 77.636719 157.425781 79.839844 157.425781 82.574219 C 157.425781 85.320313 159.632813 87.539063 162.371094 87.539063 L 175.820313 87.539063 C 178.53125 87.539063 180.734375 89.738281 180.734375 92.449219 C 180.734375 95.171875 178.53125 97.363281 175.820313 97.363281 L 162.308594 97.363281 C 159.582031 97.363281 157.355469 99.582031 157.355469 102.320313 C 157.355469 105.046875 159.582031 107.28125 162.308594 107.28125 L 176.378906 107.28125 C 184.117188 107.28125 190.640625 101.863281 190.640625 93.691406 M 230.003906 79.207031 C 228.519531 77.742188 226.136719 77.804688 226.136719 77.804688 C 226.136719 77.804688 223.765625 77.742188 222.273438 79.207031 C 221.183594 80.230469 221.25 81.96875 221.25 81.96875 L 221.25 84.449219 C 221.25 84.449219 221.183594 86.167969 222.273438 87.199219 C 223.765625 88.660156 226.136719 88.582031 226.136719 88.582031 C 226.136719 88.582031 228.519531 88.660156 230.003906 87.199219 C 231.09375 86.167969 231.03125 84.449219 231.03125 84.449219 L 231.03125 81.96875 C 231.03125 81.96875 231.09375 80.230469 230.003906 79.207031 M 102.46875 87.800781 C 105.21875 87.800781 107.429688 86.15625 107.429688 83.421875 L 107.429688 62.628906 C 107.429688 59.878906 105.21875 57.660156 102.46875 57.660156 C 99.730469 57.660156 97.523438 59.878906 97.523438 62.628906 L 97.523438 83.421875 C 97.523438 86.15625 99.730469 87.800781 102.46875 87.800781 M 237.773438 94.179688 C 233.242188 98.238281 226.003906 98.0625 226.003906 98.0625 C 226.003906 98.0625 218.796875 98.238281 214.234375 94.179688 C 210.9375 91.347656 211.15625 86.582031 211.15625 86.582031 L 211.15625 79.667969 C 211.15625 79.667969 210.9375 74.871094 214.234375 72.046875 C 218.796875 67.988281 226.003906 68.175781 226.003906 68.175781 C 226.003906 68.175781 233.242188 67.988281 237.773438 72.046875 C 241.078125 74.871094 240.867188 79.667969 240.867188 79.667969 L 240.867188 86.582031 C 240.867188 86.582031 241.078125 91.347656 237.773438 94.179688 M 241.261719 61.863281 C 235.628906 59.109375 230.839844 58.269531 226.003906 58.269531 C 221.183594 58.269531 216.394531 59.109375 210.753906 61.863281 C 204.828125 64.753906 201.242188 71.355469 201.242188 76.378906 L 201.242188 89.867188 C 201.242188 94.886719 204.828125 101.480469 210.753906 104.371094 C 216.394531 107.125 221.183594 107.945313 226.003906 107.945313 C 230.839844 107.945313 235.628906 107.125 241.261719 104.371094 C 247.191406 101.480469 250.777344 94.886719 250.777344 89.867188 L 250.777344 76.378906 C 250.777344 71.355469 247.191406 64.753906 241.261719 61.863281 M 203.066406 142.070313 C 203.066406 142.820313 202.472656 143.449219 201.769531 143.449219 C 201.050781 143.421875 200.460938 142.816406 200.460938 142.058594 L 200.460938 140.394531 C 200.460938 139.648438 201.050781 139.054688 201.769531 139.054688 C 202.472656 139.058594 203.066406 139.664063 203.066406 140.417969 Z M 202.242188 135.644531 C 202.242188 135.875 202.386719 136.046875 202.589844 136.050781 L 202.617188 136.050781 L 203.121094 136.023438 L 203.066406 139.019531 C 202.972656 138.929688 202.898438 138.851563 202.820313 138.78125 C 202.460938 138.339844 202.128906 138.234375 201.769531 138.234375 C 200.605469 138.246094 199.660156 139.226563 199.660156 140.417969 L 199.660156 142.070313 C 199.660156 143.261719 200.605469 144.222656 201.769531 144.222656 C 202.5 144.222656 202.882813 143.945313 203.089844 143.628906 C 203.128906 143.574219 203.203125 143.546875 203.269531 143.546875 C 203.390625 143.546875 203.480469 143.675781 203.480469 143.773438 L 203.480469 143.976563 C 203.488281 144.074219 203.578125 144.136719 203.679688 144.136719 C 203.757813 144.136719 203.847656 144.046875 203.847656 143.917969 L 203.847656 135.324219 L 202.621094 135.25 C 202.410156 135.25 202.242188 135.441406 202.242188 135.644531 M 211.597656 140.472656 L 208.96875 140.472656 C 208.988281 140.460938 208.988281 140.433594 208.988281 140.417969 C 208.988281 139.765625 209.375 139.363281 209.375 139.363281 C 209.625 139.105469 209.9375 138.957031 210.304688 138.957031 C 210.617188 138.957031 210.949219 139.105469 211.195313 139.363281 C 211.238281 139.375 211.597656 139.777344 211.597656 140.417969 Z M 210.292969 138.15625 C 209.136719 138.15625 208.199219 139.125 208.199219 140.34375 L 208.199219 142.019531 C 208.199219 143.25 209.136719 144.230469 210.304688 144.230469 C 211.039063 144.230469 211.734375 143.859375 212.164063 143.269531 C 212.195313 143.183594 212.230469 143.105469 212.230469 143.03125 C 212.230469 142.90625 212.1875 142.78125 212.085938 142.710938 C 211.992188 142.644531 211.894531 142.613281 211.828125 142.613281 C 211.707031 142.613281 211.578125 142.671875 211.488281 142.792969 C 211.238281 143.175781 210.792969 143.398438 210.304688 143.398438 C 209.5625 143.398438 208.988281 142.792969 208.988281 142.019531 L 208.988281 141.234375 L 209.128906 141.234375 L 211.984375 141.285156 C 212.210938 141.285156 212.386719 141.09375 212.386719 140.890625 L 212.386719 140.34375 C 212.367188 139.125 211.441406 138.15625 210.292969 138.15625 M 172.460938 142.03125 C 172.460938 142.792969 171.878906 143.398438 171.160156 143.398438 C 171.144531 143.394531 171.121094 143.394531 171.121094 143.394531 C 170.414063 143.394531 169.84375 142.792969 169.84375 142.042969 L 169.84375 140.308594 C 169.84375 139.554688 170.425781 138.929688 171.144531 138.929688 C 171.878906 138.929688 172.460938 139.554688 172.460938 140.308594 Z M 173.183594 141.96875 L 173.160156 141.96875 L 173.160156 141.882813 L 173.226563 140.308594 C 173.222656 139.097656 172.28125 138.117188 171.121094 138.117188 C 169.988281 138.117188 169.0625 139.097656 169.0625 140.308594 L 169.0625 142.03125 C 169.0625 143.25 169.988281 144.222656 171.144531 144.222656 C 171.703125 144.222656 172.226563 143.996094 172.621094 143.578125 C 173.015625 143.175781 173.238281 142.613281 173.238281 142.03125 L 173.183594 142.03125 Z M 194.996094 135.628906 C 194.996094 135.589844 194.960938 135.558594 194.945313 135.527344 C 194.945313 135.367188 194.804688 135.21875 194.59375 135.21875 C 194.335938 135.21875 194.136719 135.441406 194.136719 135.695313 C 194.160156 135.945313 194.347656 136.164063 194.628906 136.164063 C 194.871094 136.148438 195.105469 135.929688 195.105469 135.667969 L 195.015625 135.667969 Z M 180.632813 139.570313 C 180.699219 139.679688 180.828125 139.742188 180.941406 139.742188 C 181.019531 139.742188 181.097656 139.71875 181.175781 139.679688 C 181.273438 139.582031 181.320313 139.46875 181.320313 139.324219 C 181.320313 139.257813 181.320313 139.191406 181.277344 139.105469 C 180.878906 138.511719 180.242188 138.128906 179.550781 138.128906 C 178.386719 138.15625 177.453125 139.125 177.453125 140.34375 L 177.453125 142.03125 C 177.453125 143.234375 178.386719 144.222656 179.550781 144.222656 C 180.242188 144.222656 180.878906 143.855469 181.277344 143.269531 C 181.320313 143.183594 181.320313 143.109375 181.320313 143.03125 C 181.320313 142.898438 181.273438 142.773438 181.160156 142.691406 C 181.097656 142.625 181.011719 142.601563 180.933594 142.601563 C 180.828125 142.601563 180.699219 142.671875 180.632813 142.792969 C 180.375 143.175781 179.976563 143.394531 179.550781 143.394531 C 178.816406 143.394531 178.238281 142.792969 178.238281 142.03125 L 178.238281 140.34375 C 178.238281 139.582031 178.816406 138.96875 179.535156 138.96875 L 179.574219 138.925781 L 179.574219 138.957031 C 180.007813 138.957031 180.390625 139.191406 180.632813 139.570313 M 188.824219 139.558594 C 188.882813 139.679688 189.003906 139.742188 189.128906 139.742188 C 189.214844 139.742188 189.292969 139.710938 189.371094 139.679688 C 189.464844 139.582031 189.515625 139.460938 189.515625 139.324219 C 189.515625 139.265625 189.511719 139.179688 189.472656 139.105469 C 189.070313 138.496094 188.4375 138.128906 187.746094 138.128906 C 186.578125 138.15625 185.648438 139.125 185.648438 140.34375 L 185.648438 142.03125 C 185.652344 143.234375 186.578125 144.222656 187.746094 144.222656 C 188.4375 144.222656 189.070313 143.855469 189.472656 143.269531 C 189.503906 143.183594 189.515625 143.105469 189.515625 143.039063 C 189.515625 142.898438 189.464844 142.773438 189.359375 142.691406 C 189.28125 142.625 189.214844 142.601563 189.128906 142.601563 C 189.003906 142.601563 188.894531 142.671875 188.824219 142.792969 C 188.570313 143.175781 188.167969 143.394531 187.746094 143.394531 C 187.003906 143.394531 186.421875 142.792969 186.421875 142.03125 L 186.421875 140.34375 C 186.421875 139.582031 187.011719 138.96875 187.722656 138.96875 L 187.769531 138.929688 L 187.769531 138.957031 C 188.191406 138.957031 188.582031 139.191406 188.824219 139.558594 M 193.445313 138.578125 C 193.445313 138.8125 193.613281 139.003906 193.835938 139.003906 L 194.335938 139.003906 L 194.277344 144.023438 L 194.335938 144.023438 L 194.335938 144.082031 L 195.003906 144.082031 L 195.050781 138.246094 L 193.835938 138.179688 C 193.613281 138.179688 193.445313 138.359375 193.445313 138.578125 M 242.191406 143.378906 C 242.046875 143.378906 241.941406 143.304688 241.871094 143.261719 C 241.78125 143.183594 241.734375 143.046875 241.734375 142.914063 L 241.734375 135.324219 L 240.535156 135.25 C 240.292969 135.25 240.121094 135.441406 240.121094 135.65625 C 240.132813 135.875 240.289063 136.050781 240.488281 136.050781 L 240.511719 136.050781 L 241.023438 136.023438 L 240.957031 142.925781 C 240.957031 143.285156 241.085938 143.644531 241.3125 143.890625 C 241.535156 144.097656 241.847656 144.164063 242.171875 144.164063 L 242.191406 144.164063 C 242.414063 144.164063 242.558594 143.988281 242.558594 143.773438 L 242.523438 143.773438 C 242.558594 143.535156 242.394531 143.378906 242.191406 143.378906 M 250.003906 140.472656 L 247.371094 140.472656 C 247.386719 140.460938 247.386719 140.433594 247.386719 140.410156 C 247.386719 139.777344 247.78125 139.363281 247.78125 139.363281 C 248.015625 139.105469 248.351563 138.953125 248.707031 138.953125 C 249.035156 138.953125 249.351563 139.105469 249.601563 139.363281 C 249.652344 139.382813 250.003906 139.777344 250.003906 140.410156 Z M 248.695313 138.15625 C 247.53125 138.15625 246.601563 139.121094 246.601563 140.34375 L 246.601563 142.03125 C 246.601563 143.234375 247.53125 144.222656 248.707031 144.222656 C 249.441406 144.222656 250.136719 143.859375 250.558594 143.269531 C 250.621094 143.1875 250.632813 143.105469 250.632813 143.03125 C 250.632813 142.90625 250.582031 142.78125 250.476563 142.710938 C 250.40625 142.644531 250.3125 142.625 250.226563 142.625 C 250.109375 142.625 249.980469 142.671875 249.910156 142.792969 C 249.652344 143.175781 249.191406 143.394531 248.707031 143.394531 C 247.96875 143.394531 247.386719 142.792969 247.386719 142.03125 L 247.386719 141.234375 L 247.53125 141.234375 L 250.378906 141.285156 C 250.621094 141.285156 250.777344 141.09375 250.777344 140.890625 L 250.777344 140.34375 C 250.777344 139.121094 249.839844 138.15625 248.695313 138.15625 M 227.449219 143.382813 L 227.175781 143.394531 C 226.960938 143.394531 226.75 143.234375 226.75 142.9375 L 226.75 138.976563 L 226.789063 138.976563 L 227.429688 139.054688 C 227.652344 139.054688 227.824219 138.851563 227.824219 138.628906 C 227.824219 138.414063 227.652344 138.234375 227.429688 138.234375 L 226.691406 138.234375 L 226.691406 138.167969 L 226.75 136.71875 L 226.691406 136.746094 L 226.691406 136.71875 L 226.539063 136.808594 L 225.992188 137.003906 L 225.945313 138.300781 L 225.28125 138.234375 L 225.214844 138.976563 L 226.003906 139.054688 L 225.945313 142.9375 C 225.945313 143.597656 226.449219 144.214844 227.183594 144.214844 L 227.449219 144.214844 C 227.671875 144.214844 227.839844 144.023438 227.839844 143.808594 C 227.839844 143.574219 227.671875 143.382813 227.449219 143.382813 M 220.558594 138.78125 C 220.15625 138.367188 219.65625 138.128906 219.089844 138.128906 C 218.796875 138.128906 218.378906 138.191406 218.164063 138.414063 C 218.144531 138.433594 218.0625 138.484375 217.996094 138.484375 C 217.886719 138.484375 217.785156 138.339844 217.785156 138.226563 L 216.5625 138.179688 C 216.339844 138.179688 216.171875 138.359375 216.171875 138.578125 C 216.171875 138.8125 216.339844 138.988281 216.566406 138.988281 L 217.0625 138.988281 L 216.996094 144.039063 L 217.730469 144.097656 L 217.730469 143.914063 L 217.785156 140.328125 C 217.785156 139.558594 218.378906 138.957031 219.089844 138.957031 C 219.820313 138.957031 220.390625 139.558594 220.390625 140.328125 L 220.390625 143.761719 C 220.390625 143.996094 220.546875 144.183594 220.792969 144.183594 C 221.003906 144.183594 221.183594 143.996094 221.183594 143.773438 L 221.175781 143.773438 L 221.183594 140.328125 C 221.183594 139.382813 220.703125 138.902344 220.558594 138.78125 M 235.335938 142.292969 C 235.335938 142.625 235.003906 143.300781 234.34375 143.300781 L 233.753906 143.308594 C 233.195313 143.308594 232.796875 142.765625 232.796875 142.265625 C 232.796875 141.734375 233.21875 141.21875 233.753906 141.21875 L 235.335938 141.21875 Z M 234.023438 138.167969 L 232.628906 138.179688 C 232.371094 138.179688 232.242188 138.375 232.242188 138.578125 C 232.242188 138.78125 232.371094 138.980469 232.640625 138.980469 L 234.0625 138.96875 C 234.683594 138.976563 235.34375 139.347656 235.351563 140.445313 L 233.753906 140.382813 C 232.859375 140.382813 232.015625 141.179688 232.015625 142.226563 C 232.015625 143.507813 233.027344 144.113281 233.710938 144.113281 L 234.507813 144.113281 C 234.808594 144.113281 235.167969 143.957031 235.359375 143.738281 C 235.410156 143.707031 235.457031 143.660156 235.546875 143.660156 L 235.558594 143.597656 L 235.558594 143.65625 C 235.65625 143.65625 235.753906 143.8125 235.753906 143.921875 C 235.734375 143.917969 235.773438 143.957031 235.753906 143.957031 C 235.753906 144.046875 235.84375 144.136719 235.929688 144.136719 C 236.035156 144.136719 236.113281 144.039063 236.113281 143.921875 L 236.113281 140.308594 C 236.113281 138.875 235.042969 138.167969 234.023438 138.167969 M 240.632813 122.078125 C 240.339844 122.078125 239.90625 122.144531 239.699219 122.351563 C 239.664063 122.394531 239.609375 122.441406 239.542969 122.441406 C 239.421875 122.441406 239.332031 122.289063 239.332031 122.160156 L 238.09375 122.121094 C 237.878906 122.121094 237.714844 122.300781 237.714844 122.527344 C 237.714844 122.75 237.878906 122.945313 238.09375 122.945313 L 238.59375 122.945313 L 238.523438 127.984375 L 239.273438 128.039063 L 239.332031 124.273438 C 239.332031 123.496094 239.921875 122.898438 240.632813 122.898438 C 241.351563 122.898438 241.917969 123.496094 241.917969 124.273438 L 241.917969 127.710938 C 241.917969 127.933594 242.085938 128.125 242.328125 128.125 C 242.539063 128.125 242.710938 127.933594 242.710938 127.726563 L 242.714844 124.273438 C 242.714844 123.335938 242.238281 122.855469 242.105469 122.726563 C 241.703125 122.304688 241.179688 122.078125 240.632813 122.078125 M 216.984375 128.152344 C 217.210938 128.152344 217.394531 127.96875 217.394531 127.738281 C 217.394531 127.527344 217.210938 127.328125 216.984375 127.328125 L 216.726563 127.34375 C 216.523438 127.34375 216.316406 127.171875 216.316406 126.886719 L 216.316406 122.925781 L 216.339844 122.925781 L 216.972656 122.996094 C 217.210938 122.996094 217.363281 122.808594 217.363281 122.585938 C 217.363281 122.355469 217.210938 122.183594 216.972656 122.183594 L 216.246094 122.183594 L 216.316406 120.664063 L 216.246094 120.691406 L 216.246094 120.664063 L 216.109375 120.730469 L 215.550781 120.949219 L 215.503906 122.25 L 214.835938 122.183594 L 214.769531 122.917969 L 215.574219 122.996094 L 215.503906 126.886719 C 215.503906 127.546875 216.003906 128.152344 216.742188 128.152344 Z M 181.066406 124.421875 L 178.445313 124.421875 C 178.449219 124.417969 178.449219 124.378906 178.449219 124.363281 C 178.449219 123.710938 178.851563 123.316406 178.851563 123.316406 C 179.085938 123.035156 179.40625 122.898438 179.757813 122.898438 C 180.097656 122.898438 180.429688 123.035156 180.675781 123.316406 C 180.71875 123.332031 181.066406 123.722656 181.066406 124.363281 Z M 179.753906 122.082031 C 178.609375 122.082031 177.675781 123.082031 177.675781 124.292969 L 177.675781 125.980469 C 177.675781 127.1875 178.609375 128.179688 179.757813 128.179688 C 180.496094 128.179688 181.199219 127.8125 181.640625 127.207031 C 181.671875 127.132813 181.699219 127.050781 181.699219 126.980469 C 181.699219 126.855469 181.648438 126.730469 181.542969 126.644531 C 181.464844 126.59375 181.378906 126.550781 181.300781 126.550781 C 181.175781 126.550781 181.042969 126.628906 180.980469 126.730469 C 180.71875 127.109375 180.242188 127.34375 179.757813 127.34375 C 179.027344 127.34375 178.449219 126.742188 178.449219 125.980469 L 178.449219 125.175781 L 178.609375 125.175781 L 181.457031 125.230469 C 181.671875 125.230469 181.84375 125.050781 181.84375 124.828125 L 181.84375 124.292969 C 181.828125 123.082031 180.910156 122.082031 179.753906 122.082031 M 249.992188 124.421875 L 247.363281 124.421875 C 247.378906 124.417969 247.378906 124.378906 247.378906 124.355469 C 247.378906 123.722656 247.78125 123.316406 247.769531 123.316406 C 248.003906 123.035156 248.328125 122.898438 248.695313 122.898438 C 249.015625 122.898438 249.351563 123.035156 249.597656 123.316406 C 249.640625 123.335938 249.992188 123.734375 249.992188 124.355469 Z M 248.671875 122.082031 C 247.519531 122.082031 246.589844 123.082031 246.589844 124.292969 L 246.589844 125.976563 C 246.589844 127.1875 247.519531 128.179688 248.695313 128.179688 C 249.4375 128.179688 250.128906 127.8125 250.558594 127.207031 C 250.597656 127.132813 250.632813 127.050781 250.632813 126.980469 C 250.632813 126.855469 250.582031 126.730469 250.476563 126.65625 C 250.394531 126.59375 250.292969 126.558594 250.226563 126.558594 C 250.109375 126.558594 249.980469 126.621094 249.898438 126.730469 C 249.640625 127.109375 249.179688 127.34375 248.695313 127.34375 C 247.964844 127.34375 247.378906 126.730469 247.378906 125.976563 L 247.378906 125.175781 L 247.53125 125.175781 L 250.378906 125.230469 C 250.597656 125.230469 250.777344 125.050781 250.777344 124.828125 L 250.777344 124.292969 C 250.753906 123.082031 249.839844 122.082031 248.671875 122.082031 M 224.800781 124.402344 C 224.800781 124.351563 224.789063 124.308594 224.789063 124.261719 C 224.789063 124.308594 224.8125 124.351563 224.8125 124.402344 Z M 224.734375 126.242188 C 224.734375 126.570313 224.414063 127.25 223.738281 127.25 L 223.152344 127.261719 C 222.574219 127.261719 222.195313 126.714844 222.195313 126.210938 C 222.195313 125.675781 222.609375 125.164063 223.152344 125.164063 L 224.734375 125.164063 Z M 225.324219 128.089844 C 225.425781 128.089844 225.503906 127.996094 225.503906 127.886719 L 225.503906 124.261719 C 225.503906 122.820313 224.433594 122.109375 223.425781 122.109375 L 222.027344 122.121094 C 221.761719 122.121094 221.640625 122.320313 221.640625 122.523438 C 221.640625 122.726563 221.761719 122.929688 222.027344 122.929688 L 223.441406 122.917969 C 224.078125 122.929688 224.746094 123.292969 224.746094 124.402344 L 223.152344 124.332031 C 222.253906 124.332031 221.410156 125.117188 221.410156 126.160156 C 221.410156 127.457031 222.421875 128.046875 223.109375 128.0625 L 223.921875 128.0625 C 224.195313 128.046875 224.554688 127.890625 224.757813 127.671875 C 224.8125 127.644531 224.867188 127.601563 224.941406 127.601563 L 224.945313 127.546875 L 224.945313 127.589844 C 225.066406 127.589844 225.167969 127.761719 225.167969 127.886719 C 225.132813 127.863281 225.167969 127.894531 225.167969 127.894531 C 225.167969 127.996094 225.222656 128.089844 225.324219 128.089844 M 207.578125 124.363281 C 207.578125 123.710938 207.964844 123.316406 207.964844 123.316406 C 208.203125 123.035156 208.535156 122.898438 208.875 122.898438 C 209.214844 122.898438 209.539063 123.035156 209.78125 123.316406 C 209.824219 123.332031 210.167969 123.722656 210.167969 124.363281 L 210.167969 124.421875 L 207.554688 124.421875 C 207.578125 124.417969 207.578125 124.382813 207.578125 124.363281 M 210.742188 127.207031 C 210.792969 127.132813 210.800781 127.050781 210.800781 126.980469 C 210.800781 126.855469 210.761719 126.730469 210.671875 126.65625 C 210.585938 126.59375 210.496094 126.558594 210.410156 126.558594 C 210.292969 126.558594 210.160156 126.621094 210.105469 126.730469 C 209.824219 127.121094 209.371094 127.34375 208.875 127.34375 C 208.15625 127.34375 207.5625 126.730469 207.5625 125.980469 L 207.5625 125.175781 L 210.558594 125.230469 C 210.792969 125.230469 210.960938 125.039063 210.960938 124.828125 L 210.960938 124.292969 C 210.960938 123.082031 210.027344 122.082031 208.863281 122.082031 C 207.710938 122.082031 206.773438 123.082031 206.773438 124.292969 L 206.773438 125.980469 C 206.773438 127.1875 207.710938 128.179688 208.875 128.179688 C 209.625 128.179688 210.320313 127.8125 210.742188 127.207031 M 194.636719 126.027344 C 194.636719 126.773438 194.046875 127.390625 193.335938 127.390625 C 192.613281 127.371094 192.03125 126.761719 192.03125 126.007813 L 192.03125 124.351563 C 192.03125 123.597656 192.613281 122.996094 193.320313 122.996094 C 194.058594 123.007813 194.636719 123.609375 194.636719 124.363281 Z M 191.96875 123.046875 L 191.96875 123.007813 C 192.066406 122.898438 192.160156 122.828125 192.246094 122.75 C 192.160156 122.847656 192.066406 122.929688 191.96875 123.046875 M 195.363281 125.953125 L 195.351563 125.953125 L 195.417969 124.351563 C 195.40625 123.164063 194.472656 122.191406 193.3125 122.191406 C 192.902344 122.191406 192.511719 122.320313 191.96875 122.957031 L 191.960938 121.292969 L 192.023438 119.257813 L 190.800781 119.183594 C 190.574219 119.183594 190.40625 119.390625 190.40625 119.59375 C 190.417969 119.8125 190.574219 120.003906 190.753906 120.003906 L 190.792969 120.003906 L 191.296875 119.964844 L 191.246094 127.855469 C 191.246094 127.996094 191.320313 128.089844 191.421875 128.089844 C 191.515625 128.089844 191.597656 127.996094 191.597656 127.890625 L 191.597656 127.710938 C 191.597656 127.609375 191.6875 127.484375 191.820313 127.484375 C 191.882813 127.484375 191.945313 127.511719 191.988281 127.585938 C 192.199219 127.890625 192.59375 128.179688 193.3125 128.179688 C 193.890625 128.179688 194.410156 127.953125 194.804688 127.546875 C 195.210938 127.132813 195.417969 126.59375 195.417969 126.027344 L 195.363281 126.027344 Z M 200.328125 122.945313 L 200.253906 127.984375 L 200.984375 128.039063 L 201.027344 124.644531 C 201.027344 124.09375 201.269531 123.613281 201.484375 123.347656 C 201.808594 122.957031 202.5 122.890625 202.894531 122.890625 C 203.121094 122.890625 203.289063 122.707031 203.289063 122.476563 L 203.277344 122.476563 C 203.277344 122.234375 203.117188 122.066406 202.910156 122.066406 C 202.4375 122.066406 201.625 122.121094 200.984375 122.890625 L 200.984375 122.589844 L 201.027344 122.191406 L 199.835938 122.121094 C 199.605469 122.121094 199.441406 122.304688 199.441406 122.527344 C 199.441406 122.75 199.605469 122.945313 199.835938 122.945313 Z M 230.390625 124.230469 C 230.425781 123.402344 231.101563 122.878906 231.714844 122.878906 C 232.484375 122.878906 233.003906 123.527344 233.003906 124.230469 C 233.003906 124.957031 232.429688 125.582031 231.714844 125.582031 C 230.996094 125.582031 230.390625 124.957031 230.390625 124.230469 M 233.820313 128.667969 L 233.820313 127.308594 L 232.042969 127.238281 L 232.042969 127.1875 L 232.109375 126.292969 C 232.914063 126.171875 233.820313 125.476563 233.820313 124.230469 C 233.820313 123.808594 233.6875 123.402344 233.429688 122.980469 L 233.695313 122.75 C 233.785156 122.679688 233.824219 122.566406 233.824219 122.476563 C 233.824219 122.378906 233.785156 122.285156 233.695313 122.195313 C 233.617188 122.101563 233.507813 122.066406 233.394531 122.066406 C 233.296875 122.066406 233.21875 122.101563 233.140625 122.191406 L 232.859375 122.488281 C 232.503906 122.191406 232.109375 122.066406 231.703125 122.066406 C 230.546875 122.066406 229.621094 123.03125 229.621094 124.210938 C 229.621094 125.339844 230.425781 126.136719 231.378906 126.359375 L 231.324219 127.972656 L 231.390625 127.984375 L 231.402344 127.984375 L 233.078125 128.039063 L 233.003906 128.699219 C 233.003906 129.4375 232.429688 130.046875 231.714844 130.046875 C 230.945313 130.035156 230.425781 129.386719 230.425781 128.660156 C 230.425781 128.441406 230.246094 128.253906 230.023438 128.253906 C 229.796875 128.253906 229.632813 128.441406 229.632813 128.667969 C 229.597656 128.660156 229.632813 128.691406 229.632813 128.699219 C 229.632813 129.867188 230.503906 130.839844 231.714844 130.847656 C 232.738281 130.839844 233.820313 130.023438 233.820313 128.667969 M 141.679688 119.59375 C 141.679688 119.574219 141.648438 119.539063 141.628906 119.519531 C 141.640625 119.34375 141.511719 119.183594 141.292969 119.183594 C 141.027344 119.183594 140.820313 119.40625 140.820313 119.671875 C 140.847656 119.917969 141.054688 120.136719 141.304688 120.136719 C 141.574219 120.117188 141.785156 119.902344 141.785156 119.644531 L 141.71875 119.644531 Z M 172.757813 123.035156 C 172.738281 123.027344 172.726563 123.007813 172.714844 122.996094 L 172.757813 121.695313 Z M 172.691406 126.027344 C 172.691406 126.773438 172.097656 127.390625 171.390625 127.390625 C 170.675781 127.390625 170.089844 126.761719 170.089844 126.007813 L 170.089844 124.351563 C 170.089844 123.585938 170.675781 122.996094 171.390625 122.996094 C 172.097656 123.007813 172.691406 123.609375 172.691406 124.363281 Z M 171.867188 119.59375 C 171.878906 119.816406 172.035156 120.003906 172.214844 120.003906 L 172.246094 120.003906 L 172.757813 119.96875 L 172.691406 122.96875 C 172.605469 122.878906 172.519531 122.789063 172.449219 122.710938 C 172.097656 122.285156 171.757813 122.171875 171.390625 122.171875 C 170.238281 122.195313 169.308594 123.164063 169.308594 124.363281 L 169.308594 126.027344 C 169.308594 127.207031 170.238281 128.179688 171.390625 128.179688 L 171.417969 128.179688 C 172.136719 128.179688 172.515625 127.886719 172.726563 127.574219 C 172.769531 127.511719 172.835938 127.484375 172.894531 127.484375 C 173.027344 127.484375 173.121094 127.609375 173.121094 127.726563 L 173.121094 127.925781 C 173.128906 128.019531 173.199219 128.089844 173.304688 128.089844 C 173.394531 128.089844 173.480469 127.996094 173.480469 127.863281 L 173.480469 119.265625 L 172.257813 119.199219 C 172.035156 119.199219 171.867188 119.378906 171.867188 119.59375 M 117.609375 124.515625 L 117.601563 124.515625 L 117.601563 124.507813 L 117.609375 124.507813 Z M 117.546875 124.449219 L 114.90625 124.449219 C 114.929688 124.4375 114.929688 124.417969 114.929688 124.378906 C 114.929688 123.75 115.308594 123.347656 115.308594 123.347656 C 115.5625 123.085938 115.875 122.929688 116.242188 122.929688 C 116.5625 122.929688 116.886719 123.085938 117.144531 123.347656 C 117.1875 123.351563 117.546875 123.753906 117.546875 124.378906 Z M 116.21875 122.132813 C 115.074219 122.132813 114.140625 123.113281 114.140625 124.320313 L 114.140625 126.007813 C 114.140625 127.222656 115.074219 128.203125 116.242188 128.203125 C 116.976563 128.203125 117.675781 127.839844 118.101563 127.234375 C 118.132813 127.160156 118.179688 127.09375 118.179688 127 C 118.179688 126.886719 118.121094 126.773438 118.023438 126.683594 C 117.933594 126.613281 117.847656 126.59375 117.777344 126.59375 C 117.632813 126.59375 117.523438 126.65625 117.449219 126.773438 C 117.1875 127.148438 116.726563 127.371094 116.242188 127.371094 C 115.511719 127.371094 114.929688 126.773438 114.929688 126.007813 L 114.929688 125.207031 L 115.074219 125.207031 L 117.933594 125.261719 C 118.132813 125.261719 118.324219 125.078125 118.324219 124.859375 L 118.324219 124.320313 C 118.3125 123.113281 117.390625 122.132813 116.21875 122.132813 M 124.902344 123.007813 L 124.902344 122.957031 C 125.003906 122.847656 125.128906 122.75 125.25 122.679688 C 125.128906 122.773438 124.996094 122.878906 124.902344 123.007813 M 124.242188 127.933594 L 124.226563 127.933594 L 124.242188 127.46875 Z M 126.828125 122.097656 C 126.351563 122.097656 125.523438 122.144531 124.902344 122.917969 L 124.902344 122.628906 L 124.960938 122.234375 L 123.734375 122.15625 C 123.523438 122.15625 123.355469 122.335938 123.355469 122.558594 C 123.355469 122.789063 123.523438 122.96875 123.734375 122.96875 L 124.226563 122.96875 L 124.167969 128.019531 L 124.902344 128.0625 L 124.960938 124.683594 C 124.960938 124.121094 125.183594 123.65625 125.40625 123.386719 C 125.730469 122.980469 126.410156 122.917969 126.808594 122.917969 C 127.03125 122.917969 127.199219 122.738281 127.199219 122.507813 C 127.199219 122.257813 127.023438 122.097656 126.828125 122.097656 M 133.296875 124.230469 C 133.148438 124.113281 133.050781 123.910156 133.050781 123.695313 L 133.050781 123.664063 C 133.050781 123.253906 133.378906 122.929688 133.777344 122.929688 C 133.8125 122.917969 133.84375 122.917969 133.84375 122.917969 C 134.011719 122.917969 134.179688 123.007813 134.3125 123.164063 C 134.375 123.253906 134.503906 123.316406 134.601563 123.316406 C 134.703125 123.316406 134.785156 123.289063 134.878906 123.210938 C 134.945313 123.132813 135.003906 123.007813 135.003906 122.910156 C 135.003906 122.8125 134.96875 122.71875 134.914063 122.644531 L 134.90625 122.644531 C 134.589844 122.285156 134.191406 122.097656 133.757813 122.097656 C 132.933594 122.101563 132.265625 122.8125 132.265625 123.675781 L 132.28125 123.722656 C 132.273438 124.148438 132.441406 124.589844 132.789063 124.882813 L 133.988281 125.925781 C 134.167969 126.078125 134.269531 126.308594 134.269531 126.550781 C 134.269531 126.773438 134.191406 126.957031 134.046875 127.132813 C 133.890625 127.296875 133.679688 127.371094 133.488281 127.371094 C 133.378906 127.371094 133.265625 127.328125 133.175781 127.296875 C 133.132813 127.261719 133.089844 127.234375 133.039063 127.1875 C 132.941406 127.132813 132.882813 127.089844 132.832031 126.980469 C 132.738281 126.855469 132.621094 126.789063 132.480469 126.789063 C 132.386719 126.789063 132.335938 126.808594 132.273438 126.855469 C 132.140625 126.917969 132.085938 127.050781 132.085938 127.183594 C 132.085938 127.257813 132.113281 127.328125 132.140625 127.40625 C 132.429688 127.886719 132.921875 128.191406 133.457031 128.191406 L 133.5 128.191406 C 133.921875 128.191406 134.3125 128.007813 134.601563 127.703125 C 134.902344 127.371094 135.058594 126.957031 135.058594 126.558594 C 135.058594 126.09375 134.859375 125.613281 134.480469 125.285156 C 134.460938 125.230469 133.433594 124.371094 133.296875 124.230469 M 107.0625 126.996094 L 107.035156 126.898438 L 107.777344 124.644531 Z M 109.070313 122.285156 C 109.027344 122.191406 109.003906 122.082031 108.902344 122.054688 C 108.867188 122.027344 108.804688 122.027344 108.789063 122.027344 C 108.617188 122.027344 108.460938 122.144531 108.414063 122.320313 L 107.023438 126.871094 L 106.378906 124.773438 L 105.6875 122.320313 C 105.652344 122.234375 105.546875 122.199219 105.476563 122.15625 C 105.476563 122.15625 105.464844 122.140625 105.453125 122.140625 C 105.390625 122.109375 105.378906 122.027344 105.308594 122.027344 C 105.265625 122.027344 105.21875 122.042969 105.1875 122.054688 C 105.019531 122.097656 104.894531 122.285156 104.894531 122.445313 C 104.894531 122.488281 104.917969 122.527344 104.929688 122.566406 L 106.589844 127.890625 C 106.621094 128.046875 106.789063 128.179688 106.957031 128.179688 L 107.164063 128.179688 C 107.316406 128.179688 107.480469 128.046875 107.523438 127.890625 L 109.160156 122.566406 C 109.171875 122.523438 109.183594 122.488281 109.183594 122.445313 C 109.183594 122.378906 109.109375 122.355469 109.085938 122.289063 C 109.070313 122.289063 109.070313 122.285156 109.070313 122.285156 M 82.394531 127.132813 C 82.273438 127 82.203125 126.886719 82.171875 126.699219 C 82.164063 126.539063 82.164063 126.296875 82.164063 125.941406 L 82.171875 122.234375 L 81.480469 122.144531 L 81.425781 126.007813 C 81.425781 126.75 80.828125 127.359375 80.113281 127.359375 C 80.128906 127.355469 80.089844 127.359375 80.089844 127.359375 C 79.339844 127.355469 78.777344 126.730469 78.777344 126.003906 L 78.792969 122.46875 C 78.792969 122.238281 78.621094 122.050781 78.410156 122.050781 C 78.167969 122.050781 78.003906 122.238281 78.003906 122.457031 L 77.984375 126.007813 C 77.984375 127.09375 78.820313 128.191406 80.089844 128.191406 C 80.128906 128.179688 80.132813 128.191406 80.132813 128.191406 C 80.589844 128.191406 81.167969 127.996094 81.636719 127.40625 L 81.738281 127.496094 L 82.183594 128.0625 C 82.25 128.140625 82.347656 128.191406 82.460938 128.191406 C 82.566406 128.191406 82.671875 128.148438 82.746094 128.0625 C 82.816406 127.996094 82.863281 127.886719 82.863281 127.789063 C 82.863281 127.671875 82.816406 127.585938 82.746094 127.496094 Z M 90.621094 122.101563 C 90.332031 122.117188 89.898438 122.167969 89.703125 122.378906 C 89.664063 122.429688 89.609375 122.46875 89.542969 122.46875 C 89.414063 122.46875 89.332031 122.320313 89.332031 122.195313 L 88.105469 122.144531 C 87.882813 122.144531 87.707031 122.335938 87.707031 122.558594 C 87.707031 122.789063 87.871094 122.980469 88.105469 122.980469 L 88.605469 122.980469 L 88.527344 128.007813 L 89.265625 128.0625 L 89.332031 124.308594 C 89.332031 123.542969 89.910156 122.929688 90.621094 122.929688 C 91.339844 122.929688 91.9375 123.542969 91.9375 124.308594 L 91.9375 127.734375 C 91.9375 127.964844 92.089844 128.152344 92.324219 128.152344 C 92.546875 128.152344 92.710938 127.96875 92.710938 127.75 L 92.722656 124.308594 C 92.722656 123.375 92.238281 122.878906 92.101563 122.75 C 91.691406 122.339844 91.179688 122.101563 90.621094 122.101563 M 99.429688 119.605469 C 99.429688 119.574219 99.40625 119.539063 99.390625 119.519531 C 99.390625 119.34375 99.261719 119.199219 99.050781 119.199219 C 98.796875 119.199219 98.582031 119.417969 98.582031 119.671875 C 98.59375 119.917969 98.808594 120.136719 99.0625 120.136719 C 99.316406 120.117188 99.535156 119.902344 99.535156 119.644531 L 99.472656 119.644531 Z M 97.847656 122.558594 C 97.847656 122.789063 98.015625 122.980469 98.25 122.980469 L 98.75 122.980469 L 98.683594 127.996094 L 98.75 127.996094 L 98.75 128.0625 L 99.402344 128.0625 L 99.464844 122.21875 L 98.25 122.144531 C 98.019531 122.144531 97.847656 122.339844 97.847656 122.558594 M 140.09375 122.558594 C 140.09375 122.789063 140.269531 122.96875 140.492188 122.96875 L 140.988281 122.96875 L 140.914063 127.996094 L 140.988281 127.996094 L 140.988281 128.0625 L 141.648438 128.0625 L 141.707031 122.21875 L 140.492188 122.144531 C 140.269531 122.144531 140.09375 122.339844 140.09375 122.558594 M 148.761719 120.765625 L 148.789063 120.765625 L 148.761719 121.171875 Z M 149.523438 127.355469 L 149.253906 127.371094 C 149.03125 127.371094 148.832031 127.207031 148.832031 126.917969 L 148.832031 122.957031 L 148.867188 122.957031 L 149.5 123.007813 C 149.734375 123.007813 149.902344 122.828125 149.902344 122.613281 C 149.902344 122.402344 149.734375 122.199219 149.5 122.199219 L 148.761719 122.199219 L 148.761719 122.140625 L 148.832031 120.703125 L 148.761719 120.71875 L 148.761719 120.703125 L 148.617188 120.765625 L 148.058594 120.976563 L 148.039063 122.285156 L 147.363281 122.199219 L 147.296875 122.957031 L 148.101563 123.007813 L 148.101563 123.1875 L 148.039063 126.917969 C 148.039063 127.574219 148.53125 128.191406 149.253906 128.191406 L 149.523438 128.191406 C 149.734375 128.191406 149.902344 127.996094 149.902344 127.789063 C 149.902344 127.558594 149.734375 127.355469 149.523438 127.355469 M 158.363281 119.972656 C 158.441406 119.878906 158.492188 119.78125 158.492188 119.679688 C 158.492188 119.578125 158.453125 119.472656 158.363281 119.390625 L 158.3125 119.449219 L 158.285156 119.449219 C 158.273438 119.429688 158.253906 119.429688 158.230469 119.421875 C 158.230469 119.34375 158.175781 119.304688 158.085938 119.304688 C 157.980469 119.304688 157.882813 119.34375 157.8125 119.417969 L 157.527344 119.695313 L 156.460938 121.085938 L 156.617188 121.320313 L 158.09375 120.238281 Z M 158.6875 124.4375 L 156.058594 124.4375 C 156.070313 124.4375 156.070313 124.402344 156.070313 124.378906 C 156.070313 123.734375 156.46875 123.320313 156.46875 123.320313 C 156.714844 123.070313 157.027344 122.917969 157.382813 122.917969 C 157.714844 122.917969 158.039063 123.070313 158.285156 123.320313 C 158.339844 123.347656 158.6875 123.75 158.6875 124.371094 Z M 157.367188 122.101563 C 156.234375 122.101563 155.285156 123.097656 155.285156 124.308594 L 155.285156 125.992188 C 155.285156 127.207031 156.234375 128.191406 157.382813 128.191406 C 158.136719 128.191406 158.828125 127.820313 159.25 127.222656 C 159.296875 127.148438 159.332031 127.066406 159.332031 126.996094 C 159.332031 126.871094 159.269531 126.75 159.175781 126.671875 C 159.085938 126.601563 158.996094 126.582031 158.914063 126.582031 C 158.796875 126.582031 158.671875 126.632813 158.597656 126.761719 C 158.339844 127.121094 157.875 127.355469 157.382813 127.355469 C 156.660156 127.355469 156.070313 126.761719 156.070313 125.992188 L 156.070313 125.183594 L 159.074219 125.253906 C 159.296875 125.253906 159.453125 125.0625 159.453125 124.847656 L 159.453125 124.308594 C 159.453125 123.097656 158.527344 122.101563 157.367188 122.101563 "/>
<path style=" stroke:none;fill-rule:nonzero;fill:rgb(13.699341%,12.199402%,12.5%);fill-opacity:1;" d="M 261.9375 28.808594 C 265.9375 28.808594 269.683594 30.765625 271.988281 34.058594 L 272.789063 33.5 C 270.308594 29.941406 266.253906 27.820313 261.9375 27.820313 C 257.613281 27.820313 253.558594 29.953125 251.078125 33.523438 L 251.878906 34.078125 C 254.179688 30.773438 257.9375 28.808594 261.9375 28.808594 M 261.9375 53.289063 C 257.914063 53.289063 254.152344 51.304688 251.855469 47.980469 L 251.046875 48.53125 C 253.527344 52.128906 257.589844 54.269531 261.9375 54.269531 C 266.277344 54.269531 270.339844 52.132813 272.824219 48.554688 L 272.011719 47.996094 C 269.714844 51.3125 265.953125 53.289063 261.9375 53.289063 M 276.785156 44.496094 L 274.304688 44.496094 L 274.304688 41.410156 L 276.785156 41.410156 Z M 274.304688 38.933594 L 274.304688 35.003906 L 271.820313 35.003906 L 271.820313 46.972656 L 279.265625 46.972656 L 279.265625 38.933594 Z M 258.058594 39.941406 C 258.320313 37.847656 259.828125 36.445313 262.113281 36.445313 C 264.382813 36.445313 265.761719 37.847656 265.835938 39.941406 Z M 268.0625 41.019531 C 268.0625 36.917969 265.675781 34.535156 262.1875 34.535156 C 258.527344 34.535156 255.832031 37.214844 255.832031 41.050781 C 255.832031 44.648438 258.214844 47.558594 262.113281 47.558594 C 264.410156 47.558594 266.160156 46.878906 267.613281 44.996094 L 266.054688 43.769531 C 265.066406 45.023438 263.882813 45.660156 262.113281 45.660156 C 259.855469 45.660156 258.214844 43.828125 258.058594 41.6875 L 268.0625 41.6875 Z M 253.292969 45.300781 L 253.292969 44.605469 C 253.050781 44.816406 252.417969 45.273438 252.085938 45.273438 C 251.65625 45.273438 251.628906 44.730469 251.746094 44.035156 L 253.171875 35.890625 L 251.480469 35.890625 L 250.699219 40.402344 C 250.113281 43.542969 248.390625 45.03125 247.394531 45.03125 C 245.933594 45.03125 245.730469 43.757813 246.089844 41.789063 L 246.847656 37.585938 C 247.058594 36.371094 246.601563 35.492188 245.542969 35.492188 C 244.964844 35.492188 244.152344 35.914063 243.574219 36.523438 L 243.574219 37.253906 C 243.789063 37.007813 244.429688 36.550781 244.785156 36.550781 C 245.183594 36.550781 245.242188 37.097656 245.121094 37.820313 L 244.363281 41.945313 C 243.90625 44.511719 244.484375 46.480469 246.511719 46.480469 C 247.84375 46.480469 249.171875 45.453125 250.054688 44 L 249.996094 44.246094 C 249.820313 45.453125 250.234375 46.359375 251.300781 46.359375 C 251.835938 46.359375 252.691406 45.910156 253.292969 45.300781 "/>
<path style="fill:none;stroke-width:10;stroke-linecap:butt;stroke-linejoin:miter;stroke:rgb(100%,100%,100%);stroke-opacity:1;stroke-miterlimit:4;" d="M 2445 1685 C 2908.945313 1685 3285 1308.90625 3285 845 C 3285 381.054688 2908.945313 5 2445 5 L 5 5 L 5 1685 Z M 2445 1685 " transform="matrix(0.1,0,0,-0.1,0,169)"/>
</g>
</svg>
